<?xml version="1.0" standalone="no"?>
<!DOCTYPE svg PUBLIC "-//W3C//DTD SVG 1.1//EN" "http://www.w3.org/Graphics/SVG/1.1/DTD/svg11.dtd" >
<svg xmlns="http://www.w3.org/2000/svg">
<metadata>Generated by IcoMoon</metadata>
<defs>
<font id="icomoon" horiz-adv-x="1024">
<font-face units-per-em="1024" ascent="960" descent="-64" />
<missing-glyph horiz-adv-x="1024" />
<glyph unicode="&#x20;" horiz-adv-x="512" d="" />
<glyph unicode="&#xe900;" glyph-name="linkedin" d="M1024-64h-204.8v358.349c0 98.304-43.366 153.139-121.139 153.139-84.634 0-134.861-57.139-134.861-153.139v-358.349h-204.8v665.6h204.8v-74.854c0 0 64.256 112.742 209.050 112.742 144.845 0 251.75-88.371 251.75-271.258v-432.23zM125.030 708.045c-69.069 0-125.030 56.422-125.030 126.003 0 69.53 55.962 125.952 125.030 125.952 69.018 0 124.979-56.422 124.979-125.952 0.051-69.581-55.962-126.003-124.979-126.003v0zM0-64h256v665.6h-256v-665.6z" />
<glyph unicode="&#xe901;" glyph-name="figma" d="M369.792 558.222c-60.876 0-110.222-49.341-110.222-110.214 0-60.877 49.348-110.225 110.222-110.225h110.221v108.002c-0.009 0.738-0.013 1.481-0.013 2.223 0 0.738 0.004 1.481 0.013 2.219v107.995h-110.221zM480.013 622.222h-110.221c-60.874 0-110.222 49.348-110.222 110.223s49.348 110.222 110.222 110.222h110.221v-220.445zM544.013 842.667v-220.443l110.195 0.006c60.873 0 110.238 49.343 110.238 110.215 0 60.874-49.348 110.222-110.225 110.222h-110.208zM654.212 558.229c-60.279-0.006-109.257-48.401-110.199-108.454v-3.533c0.943-60.062 49.924-108.459 110.208-108.459 60.877 0 110.225 49.348 110.225 110.225 0 60.873-49.361 110.22-110.234 110.221zM369.792 273.783c-60.872 0-110.229-49.357-110.229-110.234s49.348-110.225 110.222-110.225c60.876 0 110.224 49.348 110.224 110.225l0.004 110.234h-110.221z" />
<glyph unicode="&#xe902;" glyph-name="upwork" d="M792 398.656c-47.008 0-91.168 19.84-131.168 52.32l9.664 45.824 0.32 1.824c8.832 48.672 36.16 130.496 121.152 130.496 63.68 0 115.328-51.68 115.328-115.328 0-63.488-51.68-115.168-115.328-115.168zM792 745.824c-108.32 0-192.512-70.336-226.656-186.176-52 78.176-91.68 172.16-114.656 251.328h-116.672v-303.488c-0.16-60-48.672-108.512-108.672-108.672-60 0.16-108.512 48.832-108.672 108.672v303.488h-116.672v-303.488c0-124.32 101.152-226.176 225.344-226.176 124.32 0 225.344 101.824 225.344 226.176v50.848c22.656-47.168 50.496-95.168 84.32-137.504l-71.488-335.84h119.328l51.84 243.68c45.344-28.992 97.504-47.328 157.344-47.328 128 0 232 104.672 232 232.512 0 128-104 232-232 232z" />
<glyph unicode="&#xe903;" glyph-name="github" d="M512 947.328c-282.88 0-512-229.248-512-512 0-226.261 146.688-418.133 350.080-485.76 25.6-4.821 34.987 11.008 34.987 24.619 0 12.16-0.427 44.373-0.64 87.040-142.421-30.891-172.459 68.693-172.459 68.693-23.296 59.093-56.96 74.88-56.96 74.88-46.379 31.744 3.584 31.104 3.584 31.104 51.413-3.584 78.421-52.736 78.421-52.736 45.653-78.293 119.851-55.68 149.12-42.581 4.608 33.109 17.792 55.68 32.427 68.48-113.707 12.8-233.216 56.832-233.216 253.013 0 55.893 19.84 101.547 52.693 137.387-5.76 12.928-23.040 64.981 4.48 135.509 0 0 42.88 13.739 140.8-52.48 40.96 11.392 84.48 17.024 128 17.28 43.52-0.256 87.040-5.888 128-17.28 97.28 66.219 140.16 52.48 140.16 52.48 27.52-70.528 10.24-122.581 5.12-135.509 32.64-35.84 52.48-81.493 52.48-137.387 0-196.693-119.68-240-233.6-252.587 17.92-15.36 34.56-46.763 34.56-94.72 0-68.523-0.64-123.563-0.64-140.203 0-13.44 8.96-29.44 35.2-24.32 204.843 67.157 351.403 259.157 351.403 485.077 0 282.752-229.248 512-512 512z" />
<glyph unicode="&#xe904;" glyph-name="twitter" d="M778.411 864h141.141l-308.352-352.427 362.752-479.573h-284.032l-222.464 290.859-254.549-290.859h-141.227l329.813 376.96-347.989 455.040h291.243l201.088-265.856zM728.875 116.48h78.208l-504.832 667.477h-83.925z" />
<glyph unicode="&#xe905;" glyph-name="git" d="M572.339 796.654c-33.323 33.325-87.356 33.325-120.678 0l-28.655-28.654 66.892-66.89c7.049 1.885 14.455 2.89 22.101 2.89 47.13 0 85.333-38.205 85.333-85.333 0-7.644-1.007-15.054-2.889-22.103l87.454-87.452c7.049 1.882 14.455 2.889 22.101 2.889 47.13 0 85.333-38.204 85.333-85.333s-38.204-85.333-85.333-85.333c-47.13 0-85.333 38.204-85.333 85.333 0 7.646 1.007 15.053 2.889 22.101l-66.889 66.893v-207.078c25.506-14.754 42.667-42.33 42.667-73.916 0-47.13-38.204-85.333-85.333-85.333s-85.333 38.204-85.333 85.333c0 31.586 17.161 59.162 42.667 73.916v236.167c-25.506 14.755-42.667 42.332-42.667 73.917 0 7.644 1.007 15.054 2.889 22.103l-66.889 66.891-199.32-199.321c-33.325-33.323-33.325-87.356 0-120.678l288.314-288.316c33.323-33.323 87.356-33.323 120.678 0l288.316 288.316c33.323 33.323 33.323 87.356 0 120.678l-288.316 288.314zM391.32 856.994c66.651 66.649 174.708 66.649 241.358 0l288.316-288.314c66.65-66.651 66.65-174.708 0-241.358l-288.316-288.316c-66.65-66.65-174.707-66.65-241.358 0l-288.314 288.316c-66.649 66.65-66.649 174.707 0 241.358l288.314 288.314z" />
<glyph unicode="&#xe906;" glyph-name="css3" d="M264.704 766.592l-23.456-118.272h480.992l-15.104-76.096h-481.44l-23.104-118.272h481.056l-27.072-134.912-193.568-64.128-168.032 64.128 11.584 58.496h-118.272l-28.288-141.76 277.952-106.368 320.096 106.368 105.952 530.816z" />
<glyph unicode="&#xe907;" glyph-name="html5" d="M176.469 831.488h671.104l-61.056-689.067-275.243-77.909-273.664 77.909-61.141 689.067zM401.152 519.936l-7.381 86.827 321.408-0.085 7.381 83.755-421.12 0.085 22.272-255.915h291.627l-10.368-109.483-92.971-25.685-94.464 25.813-6.016 67.413h-83.371l10.539-133.248 173.312-46.336 171.861 46.080 23.808 260.736-306.517 0.043z" />
<glyph unicode="&#xe908;" glyph-name="agile" d="M894.72 711.424c-3.285 2.645-7.552 4.267-12.16 4.267-0.213 0-0.427 0-0.64 0h0.043c-2.645-0.085-5.163-0.469-7.552-1.152l0.213 0.043c-36.693-14.592-81.451-28.373-127.488-38.869l-6.443-1.237c-8.491-2.133-15.232-8.149-18.347-15.957l-0.043-0.171c-30.805-83.84-109.099-164.011-191.147-247.936-3.797-4.309-9.216-7.083-15.317-7.339h-0.043c-6.187 0-11.733 2.816-15.403 7.211l-0.043 0.043c-82.261 84.053-160.512 163.541-191.488 248.021-3.371 7.893-10.069 13.824-18.304 16l-0.171 0.043c-53.12 12.501-97.792 26.453-141.099 43.136l7.339-2.475c-1.877 0.853-4.053 1.323-6.357 1.323-0.427 0-0.811 0-1.195-0.043h0.043c-0.128 0-0.256 0-0.384 0-4.693 0-9.003-1.621-12.459-4.309l0.043 0.043c-4.992-4.011-8.192-10.112-8.192-16.939 0-0.597 0.043-1.237 0.085-1.835v0.085c10.112-79.872 40.277-151.211 85.205-210.816l-0.811 1.109c52.565-70.101 107.392-132.139 166.784-189.483l0.469-0.427c108.544-110.933 211.456-215.893 220.715-337.28 0.811-11.051 9.941-19.755 21.12-19.84h127.659c6.059 0.213 11.435 2.731 15.403 6.699 3.499 3.84 5.589 8.96 5.589 14.549 0 0.299 0 0.597 0 0.939v-0.043c-7.936 94.592-41.984 179.968-94.763 250.453l0.896-1.28c-12.373 17.92-25.344 35.712-39.467 53.077-1.963 2.603-3.157 5.888-3.157 9.472 0 4.181 1.664 8.021 4.309 10.837l12.8 13.056c59.861 57.771 114.688 119.851 164.352 185.984l2.859 4.011c44.331 58.411 74.539 129.792 84.267 207.616l0.213 2.133c0 0.299 0.043 0.64 0.043 1.024 0 6.613-3.115 12.501-7.936 16.256l-0.043 0.043zM377.899 198.699c-3.541 3.925-8.619 6.357-14.251 6.357-0.128 0-0.299 0-0.427 0h0.043c-7.296-0.256-13.611-4.139-17.28-9.899l-0.043-0.085c-47.445-66.304-78.293-147.413-85.035-235.264l-0.085-1.579v-0.725c0-5.632 2.133-10.795 5.632-14.677 3.627-4.181 8.96-6.827 14.891-6.827h128.213c11.179 0 20.309 8.747 20.949 19.755v0.043c3.84 42.453 16.64 81.195 36.48 115.371l-0.725-1.323c2.219 4.096 3.541 8.96 3.541 14.123 0 6.784-2.261 13.056-6.101 18.048l0.043-0.085c-28.117 35.413-56.192 66.987-85.845 96.939l0.085-0.085zM586.965 651.563c10.539-0.213 18.944-8.789 18.944-19.371 0-3.029-0.683-5.931-1.963-8.491l0.043 0.128c-18.603-42.453-43.776-78.677-74.624-109.184l-0.043-0.043c-3.627-3.413-8.533-5.504-13.952-5.504-0.299 0-0.597 0-0.896 0h0.043c-0.171 0-0.384 0-0.64 0-5.461 0-10.453 2.133-14.165 5.547-30.933 30.507-56.149 66.816-73.813 107.136l-0.853 2.219c-1.024 2.304-1.664 5.035-1.749 7.851v0.085c0 10.667 8.448 19.328 19.029 19.712h0.043c9.216 0 32.683-2.475 72.789-2.475s63.573 2.475 71.552 2.475zM295.253 898.987c-37.12 0-67.2-30.080-67.2-67.2s30.080-67.2 67.2-67.2c37.077 0 67.115 29.995 67.2 67.072-0.128 37.035-30.165 67.029-67.2 67.157zM735.616 898.987c-37.12 0-67.2-30.080-67.2-67.2s30.080-67.2 67.2-67.2 67.2 30.080 67.2 67.2v0.043c-0.256 36.949-30.208 66.859-67.2 66.987zM515.456 960h-0.043c-37.163 0-67.285-30.123-67.285-67.285s30.123-67.285 67.285-67.285 67.285 30.123 67.285 67.285v0.043c0 37.12-30.123 67.243-67.243 67.243z" />
<glyph unicode="&#xe909;" glyph-name="code" d="M280.473 614.050c20.662 20.857 20.662 54.649 0 75.507l-0.694 0.701c-20.662 20.857-54.138 20.857-74.8 0l-189.482-191.219c-20.662-20.857-20.662-54.703 0-75.56l189.482-191.219c20.662-20.857 54.138-20.857 74.8 0l0.694 0.701c20.662 20.857 20.662 54.649 0 75.507l-113.935 115.011c-20.662 20.857-20.662 54.703 0 75.56l113.935 115.011zM1008.503 499.038l-189.482 191.219c-20.609 20.857-54.138 20.857-74.8 0l-0.694-0.701c-20.662-20.857-20.662-54.649 0-75.507l113.988-115.011c20.662-20.857 20.662-54.703 0-75.56l-113.988-115.011c-20.662-20.857-20.662-54.649 0-75.507l0.694-0.701c20.662-20.857 54.191-20.857 74.8 0l189.482 191.219c20.662 20.857 20.662 54.703 0 75.56v0zM690.357 722.423l-272.836-583.706c-8.839-18.351-24.346-41.032-44.352-41.032h-1.059c-38.901 0-64.253 52.833-47.052 88.452l271.248 578.184c8.839 18.297 41.6 32.642 41.6 32.642v1.353c52.926 0 69.598-40.274 52.45-75.893v0z" />
<glyph unicode="&#xe90a;" glyph-name="javascript" d="M308.256 705.024h120.032v-336.448c0-151.616-72.672-204.544-188.768-204.544-28.416 0-64.768 4.736-88.448 12.64l13.44 97.152c16.576-5.536 37.92-9.472 61.6-9.472 50.56 0 82.144 22.912 82.144 105.024v335.648zM532.512 295.904c31.584-16.576 82.144-33.184 133.472-33.184 55.296 0 84.512 22.912 84.512 58.432 0 32.384-25.28 52.128-89.248 74.24-88.448 31.584-146.88 80.544-146.88 158.752 0 90.816 76.608 159.52 201.376 159.52 60.8 0 104.256-11.84 135.84-26.848l-26.848-96.352c-20.544 10.272-59.232 25.28-110.56 25.28-52.128 0-77.408-24.48-77.408-51.328 0-33.952 29.216-48.96 98.72-75.808 93.984-34.752 137.408-83.712 137.408-159.52 0-89.248-67.904-165.056-214.016-165.056-60.8 0-120.832 16.576-150.848 33.184l24.48 98.72z" />
<glyph unicode="&#xe90b;" glyph-name="reactjs" d="M597.725 448.771c0 45.901-38.378 83.117-85.725 83.117-47.341 0-85.725-37.216-85.725-83.117 0-45.907 38.384-83.12 85.725-83.12 47.347 0 85.725 37.213 85.725 83.12zM790.413 603.082c18.102 71.325 40.858 203.591-39.36 248.433-79.843 44.647-183.744-40.905-238.608-92.257-54.704 50.84-161.523 136.026-241.673 91.041-79.812-44.796-55.2-174.869-36.695-246.642-74.451-20.502-202.077-64.662-202.077-154.886 0-89.968 127.493-138.013 201.503-158.496-18.573-72.17-41.953-200.384 37.961-245.082 80.449-44.976 186.935 38.182 242.308 90.096 55.216-51.654 158.118-135.357 237.978-90.534 80.109 44.963 59.245 175.456 40.739 247.645 71.744 20.528 199.51 67.526 199.51 156.371 0 89.357-128.31 133.875-201.587 154.31zM781.318 330.656c-12.15 37.293-28.55 76.95-48.611 117.917 19.149 40 34.912 79.146 46.723 116.198 53.718-15.101 171.562-49.613 171.562-116 0-67.011-113.085-101.85-169.674-118.115zM731.2 79.168c-59.584-33.44-148.093 46.605-188.87 84.643 27.053 28.688 54.086 62.038 80.47 99.072 46.413 3.99 90.256 10.518 130.019 19.43 13.024-51.062 38.227-169.555-21.619-203.146zM291.956 79.645c-59.59 33.315-32.353 147.728-18.69 200.89 39.321-8.435 82.849-14.502 129.371-18.16 26.557-36.237 54.374-69.546 82.406-98.717-34.634-32.483-133.219-117.482-193.087-84.013zM73.008 448.771c0 67.261 117.139 101.523 172.082 116.586 12.015-37.885 27.773-77.498 46.79-117.555-19.263-40.653-35.247-80.893-47.372-119.226-52.389 14.541-171.5 52.893-171.5 120.195zM291.318 815.887c59.834 33.58 152.672-48.201 192.39-85.011-27.888-29.037-55.45-62.095-81.779-98.124-45.149-4.058-88.37-10.573-128.103-19.302-14.907 57.888-42.277 168.893 17.492 202.437zM652.138 589.533c30.63-3.747 59.978-8.733 87.533-14.832-8.272-25.709-18.582-52.592-30.726-80.15-17.603 32.384-36.499 64.118-56.806 94.982zM512.458 702.461c18.915-19.868 37.859-42.054 56.496-66.125-37.802 1.734-75.664 1.741-113.466 0.026 18.653 23.847 37.76 46.001 56.97 66.099zM315.408 494.579c-11.943 27.462-22.161 54.464-30.505 80.541 27.391 5.942 56.601 10.8 87.033 14.486-20.365-30.797-39.229-62.518-56.528-95.027zM372.81 305.098c-31.437 3.402-61.089 8.013-88.472 13.792 8.476 26.534 18.919 54.118 31.117 82.173 17.537-32.848 36.689-64.877 57.355-95.965zM513.594 192.272c-19.437 20.336-38.826 42.829-57.76 67.021 38.016-1.446 76.106-1.45 114.118 0.195-18.694-24.634-37.571-47.158-56.358-67.216zM709.334 402.49c12.832-28.358 23.648-55.792 32.24-81.878-27.837-6.16-57.888-11.12-89.552-14.803 20.458 31.45 39.654 63.677 57.312 96.682zM599.914 300.989c-58.15-4.029-116.662-3.984-174.832-0.33-33.053 46.813-62.477 96.045-87.875 147.155 25.277 51.005 54.486 100.141 87.382 146.88 58.211 4.266 116.781 4.278 174.992-0.026 32.614-46.736 61.779-95.744 87.642-146.288-25.555-50.979-54.918-100.214-87.309-147.392zM730.57 817.069c59.85-33.47 33.21-152.341 20.134-204.032-39.827 8.912-83.078 15.542-128.358 19.664-26.381 36.418-53.712 69.533-81.149 98.196 40.227 37.603 130.102 119.315 189.373 86.172z" />
<glyph unicode="&#xe90c;" glyph-name="scrum" d="M949.27 473.072l-437.27 422.928-437.272-422.928c-14.304-13.853-14.304-36.291 0-50.144l437.272-422.928 437.27 422.928c14.307 13.853 14.307 36.291 0 50.144zM512 315.539l-136.954 132.461 136.954 132.461 136.954-132.461-136.954-132.461zM511.997 580.461c-89.664 86.737-90.102 227.221-0.976 314.477l-299.708-289.757 163.119-157.77 137.565 133.050zM649.318 448.358l-137.318-132.813c43.28-41.837 67.597-98.592 67.597-157.77 0-59.181-24.317-115.936-67.597-157.773l300.442 290.586-163.123 157.77z" />
<glyph unicode="&#xe90d;" glyph-name="scss" d="M517.472 361.6c-15.392-7.072-32.256-16.288-66.016-34.816-12.8-7.2-26.176-14.4-38.624-21.184-0.864 0.864-1.76 1.952-2.624 2.848-66.784 71.36-190.304 121.76-185.056 217.6 1.952 34.912 13.952 126.56 237.216 237.856 183.744 90.56 329.952 65.472 355.2 9.824 36.288-79.328-78.368-226.944-268.128-248.352-8.546-1.815-18.366-2.854-28.428-2.854-34.956 0-66.983 12.542-91.826 33.371l0.222-0.181c-10.048 10.912-11.552 11.552-15.264 9.376-6.112-3.2-2.176-13.088 0-18.752 14.668-26.195 38.834-45.595 67.724-53.699l0.788-0.189c23.164-5.235 49.767-8.234 77.070-8.234 52.63 0 102.656 11.145 147.848 31.204l-2.326-0.922c115.008 44.512 204.8 168.256 178.496 272-26.4 105.184-200.992 139.872-366.176 81.184-108.575-37.208-202.188-92.214-282.239-162.327l0.959 0.823c-91.008-85.12-105.408-159.104-99.52-190.080 21.184-109.984 172.8-181.568 233.6-234.592-3.2-1.76-5.888-3.2-8.288-4.576-30.336-15.072-145.984-75.52-174.816-139.456-32.736-72.448 5.248-124.384 30.336-131.36 13.057-3.262 28.047-5.134 43.473-5.134 65.93 0 123.874 34.188 157.073 85.802l0.446 0.74c20.449 31.016 32.621 69.061 32.621 109.948 0 27.266-5.413 53.268-15.223 76.99l0.49-1.338c6.697 5.384 14.191 10.438 22.094 14.845l0.818 0.419c15.488 9.152 30.24 18.176 43.328 25.152v0c41.657 19.978 90.557 31.65 142.184 31.65 0.357 0 0.714-0.001 1.071-0.002h-0.055c103.872-12.224 124.384-77.024 120.448-104.32-3.905-20.031-16.028-36.657-32.641-46.513l-0.319-0.175c-7.2-4.576-9.6-6.112-8.96-9.376 0.864-4.8 4.352-4.576 10.464-3.712 31.504 10.179 54.298 38.272 56.499 71.983l0.013 0.241c3.2 64-57.824 134.208-165.856 133.568-34.021-0.060-66.415-6.959-95.903-19.394l1.631 0.61q-7.2-2.976-13.984-6.4zM363.072 110.752c-34.496-37.536-82.496-51.712-103.232-39.712-22.4 12.8-13.536 68.32 28.8 108.032 23.989 21.685 50.454 41.625 78.614 59.093l2.346 1.355c5.024 3.2 12.448 7.424 21.376 12.8 1.536 0.864 2.4 1.312 2.4 1.312l5.248 3.2c3.946-12.752 6.218-27.412 6.218-42.603 0-40.214-15.925-76.708-41.812-103.52l0.042 0.044z" />
<glyph unicode="&#xe90e;" glyph-name="tailwindcss" d="M288 521.6q44.8 179.2 224 179.2c179.2 0 201.6-134.4 291.2-156.8q89.6-22.4 156.8 67.2-44.8-179.2-224-179.2c-179.2 0-201.6 134.4-291.2 156.8q-89.6 22.4-156.8-67.2zM64 252.8q44.8 179.2 224 179.2c179.2 0 201.6-134.4 291.2-156.8q89.6-22.4 156.8 67.2-44.8-179.2-224-179.2c-179.2 0-201.6 134.4-291.2 156.8q-89.6 22.4-156.8-67.2z" />
<glyph unicode="&#xe90f;" glyph-name="finger" d="M224.512 876.544c-7.232-5.12-8.928-15.104-3.84-22.336 5.088-7.2 15.040-8.96 22.304-3.84 2.496 1.76 253.728 174.688 560.896-0.832 2.496-1.44 5.248-2.112 7.904-2.112 5.568 0 10.944 2.88 13.92 8.064 4.384 7.68 1.728 17.472-5.952 21.824-324.672 185.536-592.544 1.088-595.232-0.768zM963.52 558.4c2.976 0 5.984 0.832 8.672 2.56 7.424 4.8 9.568 14.688 4.768 22.144-97.696 151.392-265.216 241.792-448.032 241.792-178.784 0-344.288-87.328-442.656-233.568-4.928-7.328-3.008-17.28 4.32-22.208 7.328-4.992 17.312-3.008 22.208 4.32 92.448 137.408 248 219.456 416.128 219.456 171.936 0 329.376-84.896 421.184-227.136 3.008-4.768 8.16-7.36 13.408-7.36zM823.712 74.080c-267.936 0-278.528 215.712-278.848 224.928-0.288 8.832-8.096 16.352-16.512 15.456-8.832-0.288-15.744-7.648-15.488-16.448 0.064-2.56 11.264-255.936 310.816-255.936 9.248 0.064 18.080 6.56 18.048 16.064-0.032 8.832-7.2 15.936-16 15.936-1.152 0.48-1.344 0.032-2.016 0zM899.648 225.088c29.664 57.984 23.168 139.552-18.784 235.904-43.296 99.424-139.968 198.016-258.432 228.736-84.48 21.92-213.44 26.464-347.776-76.288-257.056-196.64-116.224-503.040-114.784-506.144 3.776-8 13.248-11.424 21.312-7.616 8 3.776 11.392 13.344 7.616 21.312-1.344 2.848-131.456 285.888 105.28 467.008 124.064 94.944 242.656 90.88 320.32 70.72 126.4-32.8 204.16-134.944 237.088-210.56 37.44-86.016 44.448-160.064 19.648-208.512-14.816-28.992-27.968-36.288-62.72-43.84-27.168-5.888-51.808-1.824-73.152 12.032-34.464 22.4-60.96 70.592-74.56 135.712-14.688 70.176-76.8 104.448-131.808 107.264-65.248 3.264-119.36-32.448-138.080-91.168-30.464-95.648-13.28-307.008 270.048-422.528 1.952-0.736 4-1.12 6.016-1.12 6.304 0 12.288 3.744 14.816 9.984 3.36 8.16-0.576 17.536-8.768 20.864-327.008 133.312-254.848 372.992-251.616 383.136 17.184 53.984 67.776 71.328 105.952 68.896 39.648-2.016 90.176-24.672 102.144-81.856 15.584-74.592 46.176-128.544 88.48-156 28.768-18.688 61.536-24.224 97.344-16.48 43.936 9.536 65.248 23.136 84.416 60.544zM423.168 526.848c83.808 33.728 182.4 19.104 229.312-14.56 26.688-19.136 113.664-90.848 113.664-210.368 0-8.864 7.168-16 16-16s16 7.168 16 16c0 134.784-97.216 215.008-127.008 236.384-53.184 38.176-162.304 57.6-259.904 18.24-58.208-23.456-132.224-76.512-154.368-196.224-44.512-240.608 133.408-400.032 140.992-406.72 3.040-2.656 6.784-3.968 10.56-3.968 4.448 0 8.864 1.856 12.032 5.472 5.824 6.656 5.152 16.768-1.472 22.592-1.728 1.504-171.872 153.888-130.624 376.832 19.456 105.376 84.032 151.872 134.816 172.32z" />
<glyph unicode="&#xe910;" glyph-name="mail-full" d="M512 370.688l-106.112 87.968-370.208-378.976h943.232l-363.392 379.616-103.52-88.608zM668.48 499.52l352.064-366.048c2.016 7.104 3.456 14.464 3.456 22.24v632.704l-355.52-288.896zM0 789.888v-634.176c0-7.776 1.44-15.136 3.456-22.24l353.248 364.864-356.704 291.552zM992 848h-960l480-384.608 480 384.608z" />
<glyph unicode="&#xe911;" glyph-name="mail" d="M960 192c0-6.496-1.248-12.64-3.040-18.496l-284.96 306.496 288 224v-512zM113.792 129.728l288.768 307.712 109.44-82.72 104.704 83.232 293.504-308.224c-4.576-1.056-791.84-1.056-796.416 0v0zM64 192v512l288-224-284.96-306.496c-1.792 5.856-3.040 12-3.040 18.496v0zM928 768l-416-320-416 320h832zM896 832h-768c-70.688 0-128-57.312-128-128v-512c0-70.688 57.312-128 128-128h768c70.688 0 128 57.312 128 128v512c0 70.688-57.312 128-128 128v0z" />
<glyph unicode="&#xe912;" glyph-name="discord" d="M872.653 704.43c-117.34 87.808-229.765 85.34-229.765 85.34l-11.489-13.128c139.5-41.851 204.329-103.393 204.329-103.393-199.588 109.885-453.806 109.097-661.402 0 0 0 67.287 64.829 214.999 106.68l-8.202 9.851c0 0-111.606 2.458-229.765-85.34 0 0-118.17-212.531-118.17-474.307 0 0 68.936-118.17 250.286-123.914 0 0 30.362 36.106 54.979 67.287-104.212 31.181-143.606 96.010-143.606 96.010 65.475-40.97 131.676-66.611 214.18-82.883 134.226-27.628 301.189 0.778 425.892 82.883 0 0-41.032-66.468-148.531-96.829 24.617-30.362 54.159-65.649 54.159-65.649 181.35 5.745 250.276 123.914 250.276 123.085-0.010 261.775-118.17 474.307-118.17 474.307zM358.963 306.442c-45.957 0-83.702 40.212-83.702 90.266 3.359 119.88 164.884 119.511 167.404 0 0-50.053-36.936-90.266-83.702-90.266zM658.473 306.442c-45.957 0-83.702 40.212-83.702 90.266 3.686 119.644 163.195 119.695 167.404 0 0-50.053-36.925-90.266-83.702-90.266z" />
<glyph unicode="&#xe913;" glyph-name="bash-shell" d="M873.92 732.16l-303.168 179.84c-16.651 10.028-36.753 15.96-58.24 15.96s-41.589-5.932-58.756-16.248l0.516 0.288-303.040-179.84c-35.546-21.482-58.945-59.917-58.945-103.816 0-0.132 0-0.264 0.001-0.396v0.021-359.936c-0.001-0.184-0.002-0.401-0.002-0.618 0-43.69 23.176-81.967 57.904-103.209l0.53-0.301 303.104-179.968c16.651-10.028 36.753-15.96 58.24-15.96s41.589 5.932 58.756 16.248l-0.516-0.288 303.104 179.968c35.257 21.527 58.434 59.794 58.434 103.474 0 0.23-0.001 0.46-0.002 0.69v-0.035 359.936c0.002 0.287 0.004 0.627 0.004 0.967 0 43.454-22.926 81.554-57.342 102.863l-0.518 0.298zM639.104 170.176v-25.856c-0.054-3.336-1.813-6.249-4.441-7.913l-0.039-0.023-15.296-8.768c-2.432-1.28-4.48 0-4.48 3.392v25.344c-6.411-3.212-13.968-5.092-21.964-5.092-4.593 0-9.042 0.62-13.266 1.782l0.35-0.082c-1.279 0.847-2.111 2.28-2.111 3.908 0 0.67 0.141 1.307 0.395 1.882l-0.012-0.030 5.504 23.36c0.648 2.632 2.292 4.798 4.499 6.119l0.045 0.025c0.358 0.159 0.776 0.251 1.216 0.251s0.858-0.092 1.236-0.259l-0.020 0.008c3.291-0.918 7.070-1.445 10.972-1.445 7.659 0 14.843 2.032 21.043 5.587l-0.207-0.109c13.643 6.799 23.001 20.376 23.677 36.201l0.003 0.087c0 13.184-7.168 18.688-24.576 18.752-22.016 0-42.304 4.224-42.88 36.736 0.558 29.144 14.284 54.971 35.458 71.854l0.19 0.146v26.048c0 0.015 0 0.032 0 0.050 0 3.372 1.774 6.33 4.44 7.991l0.040 0.023 14.784 9.408c2.432 1.28 4.48 0 4.48-3.456v-26.176c5.883 2.752 12.774 4.358 20.040 4.358 3.166 0 6.261-0.305 9.257-0.887l-0.304 0.049c1.428-0.817 2.375-2.332 2.375-4.068 0-0.731-0.168-1.423-0.467-2.039l0.012 0.028-5.184-23.168c-0.662-2.419-2.145-4.421-4.123-5.737l-0.037-0.023c-0.334-0.116-0.719-0.183-1.12-0.183s-0.786 0.067-1.145 0.19l0.025-0.007c-2.445 0.554-5.253 0.872-8.135 0.872-7.301 0-14.127-2.038-19.939-5.576l0.17 0.096c-12.231-5.38-20.714-17.197-21.182-31.046l-0.002-0.058c0-11.84 6.272-15.488 27.2-15.872 28.032 0 40.128-12.736 40.448-40.896-0.594-30.555-14.754-57.687-36.689-75.7l-0.175-0.14zM797.888 213.696c0.062-0.324 0.098-0.697 0.098-1.079 0-1.959-0.937-3.7-2.387-4.798l-0.015-0.011-76.672-46.528c-0.377-0.323-0.871-0.52-1.411-0.52-0.425 0-0.822 0.122-1.158 0.333l0.009-0.005c-0.647 0.4-1.071 1.106-1.071 1.911 0 0.162 0.017 0.32 0.050 0.472l-0.003-0.015v19.84c0.113 2.218 1.524 4.080 3.483 4.851l0.037 0.013 75.456 45.184c0.38 0.305 0.867 0.49 1.398 0.49 1.237 0 2.24-1.003 2.24-2.24 0-0.174-0.020-0.343-0.057-0.505l0.003 0.015v-17.472zM850.816 656.192l-286.848-177.152c-35.776-21.184-62.080-44.352-62.080-87.488v-353.28c0-25.856 10.56-42.368 26.432-47.424-4.726-0.932-10.202-1.511-15.796-1.599l-0.076-0.001c-16.896 0-33.408 4.608-47.872 13.248l-303.168 179.904c-28.97 17.79-48.001 49.3-48.001 85.255 0 0.133 0 0.265 0.001 0.397v-0.020 359.936c-0.001 0.15-0.001 0.327-0.001 0.505 0 35.955 19.031 67.466 47.569 85.008l0.433 0.247 303.232 179.84c13.622 8.207 30.068 13.062 47.648 13.062s34.026-4.855 48.070-13.297l-0.422 0.235 303.104-179.968c24.512-15.005 41.799-39.763 46.515-68.741l0.077-0.571c-9.856 21.376-32.512 27.328-58.88 11.84h0.128z" />
<glyph unicode="&#xe914;" glyph-name="sound-on" d="M807.932 106.112l-66.57 53.258c148.385 162.151 148.385 410.031-0.003 572.182l66.57 53.255c173.224-193.425 173.222-485.271 0.003-678.695zM639.159 649.789l-66.648-53.318c79.591-85.135 79.589-216.888 0.003-302.023l66.648-53.318c104.409 116.442 104.409 292.218-0.003 408.658zM468.833 789.333l-221.708-174.458h-161.792v-341.333h162.042l221.458-170.917v686.708zM170.667 529.542h106.042l106.792 84.042v-337.292l-107.042 82.583h-105.792v170.667z" />
<glyph unicode="&#xe915;" glyph-name="sound-off" d="M179.503 840.837l725.333-725.333-60.34-60.34-375.665 375.667 0.002-328.206-221.458 170.917h-162.042v341.333h161.792l21.074 16.586-149.036 149.036 60.34 60.34zM807.93 784.807c135.48-151.279 164.998-362.76 88.561-540.275l-65.9 65.904c47.739 142.007 17.995 303.944-89.231 421.116l66.57 53.255zM328.981 570.681l-52.273-41.139h-106.042v-170.667h105.792l107.042-82.583-0.001 239.871-54.518 54.518zM639.159 649.789c57.253-63.848 83.111-145.537 77.577-225.502l-98.476 98.475c-9.938 26.61-25.187 51.715-45.75 73.71v0zM468.833 789.333l-0.002-117.147-65.56 65.56 65.562 51.587z" />
<glyph unicode="&#xe916;" glyph-name="close" d="M712.832 588.501l-140.501-140.501 140.501-140.501c8.036-7.769 13.026-18.647 13.026-30.69 0-23.564-19.103-42.667-42.667-42.667-12.043 0-22.92 4.989-30.678 13.014l-140.513 140.513-140.501-140.501c-7.769-8.036-18.647-13.026-30.69-13.026-23.564 0-42.667 19.103-42.667 42.667 0 12.043 4.989 22.92 13.014 30.678l140.513 140.513-140.501 140.501c-8.036 7.769-13.026 18.647-13.026 30.69 0 23.564 19.103 42.667 42.667 42.667 12.043 0 22.92-4.989 30.678-13.014l140.513-140.513 140.501 140.501c7.769 8.036 18.647 13.026 30.69 13.026 23.564 0 42.667-19.103 42.667-42.667 0-12.043-4.989-22.92-13.014-30.678l-0.012-0.012z" />
<glyph unicode="&#xe917;" glyph-name="arrow-up" d="M797.039 363.593l-136.96 136.96-83.627 84.054c-35.413 35.413-93.013 35.413-128.427 0l-221.015-221.014c-29.013-29.013-8.107-78.507 32.427-78.507h505.175c40.96 0 61.44 49.493 32.427 78.507z" />
<glyph unicode="&#xe918;" glyph-name="node" d="M549.52 886.441c-22.714 12.774-52.326 12.717-75.059 0-113.856-62.834-227.715-125.686-341.592-188.491-22.159-11.657-37.105-35.453-36.866-60.152v-379.648c-0.16-25.181 15.556-49.206 38.287-60.704 32.709-17.402 64.488-36.57 97.788-52.813 38.466-18.902 86.592-23.082 125.528-3.37 31.606 16.336 45.645 52.672 45.603 86.064 0.256 125.293 0.042 250.589 0.099 375.885 0.752 5.568-3.43 11.52-9.504 11.386-14.55 0.23-29.12 0.134-43.67 0.038-5.498 0.518-10.864-4.048-10.448-9.574-0.195-124.486 0.038-249.011-0.118-373.517 0.317-17.222-11.318-33.773-27.916-39.59-38.334-13.437-147.749 57.606-147.749 57.606-4.015 1.859-6.565 6.214-6.172 10.541 0 125.254 0.020 250.512 0 375.747-0.552 5.049 2.56 9.597 7.197 11.658 113.482 62.463 226.905 125.083 340.387 187.585 3.942 2.631 9.437 2.623 13.37-0.019 113.482-62.483 226.925-125.045 340.426-187.511 4.653-2.058 7.632-6.682 7.158-11.713-0.019-125.235 0.038-250.493-0.038-375.731 0.336-4.432-1.955-8.726-6.093-10.672-112.422-62.125-226.125-122.246-337.53-186.176-4.861-2.787-10.368-5.946-15.814-2.874-29.296 16.205-58.237 33.040-87.437 49.402-3.174 1.981-7.216 2.832-10.528 0.614-13.091-6.899-25.405-12.486-40.438-18.438-21.114-8.358-17.741-11.776 1.302-22.87 34.147-19.325 68.352-38.573 102.499-57.917 22.48-14.029 52.685-15.027 75.888-2.064 113.875 62.755 227.715 125.584 341.613 188.339 22.669 11.562 38.464 35.491 38.304 60.691v379.645c0.221 24.197-14.154 47.569-35.645 59.399-114.253 63.14-228.56 126.142-342.832 189.244zM721.341 601.402c-44.694 23.91-97.866 25.184-147.533 22.058-35.882-3.546-73.619-13.446-99.76-39.168-26.813-25.856-32.65-67.61-19.914-101.363 9.126-23.853 32.099-39.363 55.856-47.568 30.602-10.803 62.742-14.144 94.893-17.485 29.325-3.046 58.659-6.096 86.845-14.81 11.514-3.814 24.922-9.651 28.448-22.179 3.258-14.835-0.314-32.080-12.358-42.387-38.259-30.282-144.685-25.642-182.486-1.808-15.283 10.154-21.869 28.128-24.547 45.258-0.298 5.338-4.595 10.234-10.39 9.827-14.512 0.173-29.024 0.134-43.536 0.019-5.062 0.426-10.326-3.178-10.605-8.346-2.982-78.454 69.072-112.656 136.672-120.186 38.621-3.68 78.090-3.469 116.122 4.819 28.589 6.509 57.254 18.496 76.934 40.515 24.269 26.762 29.040 66.605 18.157 99.939-8.32 24.874-32.099 40.829-56.406 49.037-33.056 11.334-72.23 17.427-102.17 20.278-43.517 4.144-95.229 2.451-107.546 31.046-4.912 14.973-0.733 33.565 13.027 42.774 36.406 24.694 110.502 21.414 148.205 2.966 17.312-8.669 27.344-26.474 31.485-44.448 0.768-5.28 4.32-10.79 10.432-10.56 14.413-0.288 28.826-0.077 43.235-0.096 4.95-0.346 10.371 2.448 11.338 7.517-0.611 37.568-19.795 76.026-54.397 94.349z" />
<glyph unicode="&#xe919;" glyph-name="vim" d="M512.92 855l-51.913-47.223-3.423 3.142-6.753 6.096h-296l-6.847-6.706-20.024-19.743v-66.497l6.753-6.143 12.755-11.583 6.706-6.143h21.478v-152.033l-111.047-101.012 111.047-101.011v-201.976l11.489-6.003 20.868-10.974 5.299-2.814h87.881l6.753 6.331 51.584 48.114 151.517-137.824 134.823 122.63h15.804c5.294 0.008 9.449 2.742 11.255 7.269v0.090l0.090 0.048 5.158 13.787c1.071 2.902 0.9 5.688-0.188 8.019l42.862 39.017-18.524-54.023c-2.529-7.519 2.958-14.224 11.583-14.209 0.026 0 0.026 0 0.051 0h65.039c5.003 0.032 8.967 2.518 10.927 6.706h0.049v0.048l5.862 12.662v0.090l0.049 0.048c3.23 7.404-1.83 14.397-10.41 14.865l28.465 81.315h38.594l-35.171-101.48-0.048-0.048c-2.529-7.519 2.911-14.224 11.536-14.209 0.024 0 0.064 0 0.086 0h71.28c0.024 0 0.064 0 0.086 0 5.173-0.008 9.309 2.553 11.208 6.94v0.090l5.815 13.787 0.048 0.048v0.048c3.059 7.613-2.344 14.713-11.255 14.725h-1.735l39.298 116.158 0.086 0.188h-0.086c1.168 3.449 0.619 6.904-1.782 9.801l-13.365 16.366-0.086 0.045-0.048 0.089c-2.36 2.72-5.691 4.137-9.473 4.127v0.045h-51.115c-3.352 0.011-6.336-1.132-8.676-3.329l-0.187-0.089-0.048-0.089-13.365-13.365h-17.633l131.493 119.629-157.238 143.029 145.28 135.526v63.683l-6.706 6.143-13.928 12.662-6.753 6.096h-298.345l-6.612-5.487-13.975-11.63-7.456-6.237v-11.067l-80.753 73.437zM174.949 775.185h256.89l3.283-3.001v-30.904l-1.22-1.313h-42.299v-304.488l339.19 304.488h-88.959l-2.157 2.063v32.123h261.345l0.423-0.423v-29.262l-339.331-316.634-6.518-5.112-0.090-0.089-0.051-0.045c-1.252-1.033-2.194-2.27-2.861-3.658l-270.817-252.716h-56.086l-4.033 2.063v573.758h-47.739v32.17l1.031 0.985zM575.665 423.943h34.843l8.16-7.362-10.504-32.733-9.848-9.051h-37.75l-9.332 8.488 12.24 31.138 12.193 9.52zM506.542 336.25h84.223l-55.758-147.859h22.041l-5.205-15.382h-80.143l56.321 146.359h-26.12l4.643 16.882zM761.509 335.734h41.174l17.445-17.398h30.763l16.882 16.835h51.115l13.365-16.319-44.175-130.461h18.008l-5.815-13.834h-71.421l40.095 115.736h-63.871l-36.015-103.028h15.663l-5.815-12.708h-65.043l39.532 115.22h-66.825l-35.452-101.386h15.663l-5.158-13.834h-67.388l54.023 144.811h-20.915l5.815 15.804h63.308l18.57-17.445h29.028l17.445 18.008z" />
<glyph unicode="&#xe91a;" glyph-name="typescript" d="M762.048 697.6c28.327-6.733 52.611-21.193 71.26-41.015l0.068-0.073c10.298-10.728 19.38-22.755 26.942-35.774l0.482-0.898c0.352-1.44-49.216-34.752-79.296-53.312-1.088-0.736-5.44 3.968-10.336 11.232-11.001 18.763-30.739 31.367-53.482 32.22l-0.118 0.004c-34.56 2.368-56.832-15.744-56.672-45.952-0.021-0.5-0.034-1.087-0.034-1.677 0-7.212 1.825-13.997 5.039-19.919l-0.109 0.22c7.584-15.744 21.728-25.152 66.048-44.352 81.632-35.2 116.64-58.304 138.272-91.232 14.336-23.996 22.812-52.928 22.812-83.839 0-19.776-3.469-38.741-9.832-56.321l0.364 1.152c-22.507-49.924-69.67-85.145-125.544-90.291l-0.6-0.045c-11.964-1.452-25.817-2.28-39.863-2.28-16.581 0-32.893 1.154-48.859 3.387l1.842-0.211c-45.868 7.72-85.704 29.381-115.992 60.406l-0.040 0.042c-11.362 12.759-21.253 27.219-29.167 42.849l-0.529 1.151c3.029 2.273 6.461 4.478 10.049 6.433l0.447 0.223c5.056 2.912 24.256 13.92 42.368 24.416l32.768 19.008 6.88-9.984c11.69-16.646 26.102-30.507 42.726-41.236l0.602-0.364c14.697-8.214 32.248-13.051 50.927-13.051 22.435 0 43.24 6.977 60.365 18.88l-0.348-0.229c9.233 9.011 14.959 21.579 14.959 35.485 0 10.395-3.2 20.043-8.668 28.012l0.109-0.169c-8.864 12.8-26.976 23.328-78.4 45.632-41.993 14.402-77.927 36.953-107.501 65.964l0.045-0.044c-13.989 15.875-24.756 34.951-31.054 55.959l-0.274 1.065c-2.542 12.786-3.996 27.486-3.996 42.526 0 10.664 0.731 21.157 2.146 31.433l-0.134-1.191c12.629 56.836 58.768 100.051 116.191 108.171l0.737 0.085c10.494 1.351 22.634 2.123 34.953 2.123 18.185 0 35.978-1.681 53.232-4.895l-1.785 0.276zM494.336 649.984l0.352-46.656h-148.544v-421.792h-104.864v421.728h-148.48v45.792c-0.092 3.382-0.144 7.362-0.144 11.355 0 12.571 0.517 25.022 1.531 37.332l-0.107-1.615c0.544 0.736 90.848 1.088 200.384 0.896l199.264-0.544z" />
<glyph unicode="&#xe91b;" glyph-name="external-link" d="M886.8 857.933c-1.386-0.045-2.698-0.164-3.987-0.356l0.187 0.023h-200.333c-0.144 0.002-0.313 0.003-0.483 0.003-18.853 0-34.137-15.284-34.137-34.137s15.284-34.137 34.137-34.137c0.17 0 0.339 0.001 0.508 0.004h122.374l-351.333-351.333c-6.473-6.222-10.495-14.954-10.495-24.625 0-18.853 15.284-34.137 34.137-34.137 9.671 0 18.403 4.022 24.614 10.483l351.344 351.344v-122.4c-0.002-0.144-0.003-0.313-0.003-0.483 0-18.853 15.284-34.137 34.137-34.137s34.137 15.284 34.137 34.137c0 0.17-0.001 0.339-0.004 0.508v-0.026 200.467c0.205 1.405 0.322 3.028 0.322 4.677 0 18.853-15.284 34.137-34.137 34.137-0.346 0-0.692-0.005-1.036-0.015l0.050 0.001zM204.8 721.067c-37.31 0-68.267-30.957-68.267-68.267v-512c0-37.31 30.957-68.267 68.267-68.267h512c37.31 0 68.267 30.957 68.267 68.267v429.333l-68.267-68.267v-361.067h-512v512h361.067l68.267 68.267h-429.333z" />
<glyph unicode="&#xe91c;" glyph-name="arrow-right" d="M648.521 512.346l-221.013 221.014c-29.014 28.587-78.507 8.107-78.507-32.853v-505.174c0-40.96 49.493-61.44 78.507-32.427l221.013 221.013c35.413 34.987 35.413 93.013 0 128.427z" />
<glyph unicode="&#xe91d;" glyph-name="arrow-left" d="M596.407 733.066l-136.96-136.96-84.054-83.628c-35.413-35.413-35.413-93.013 0-128.427l221.014-221.013c29.013-29.013 78.507-8.107 78.507 32.427v505.175c0 40.96-49.493 61.44-78.507 32.427z" />
<glyph unicode="&#xe91e;" glyph-name="arrow-down" d="M764.535 611h-505.175c-40.96 0-61.44-49.493-32.427-78.507l221.015-221.013c35.413-35.413 93.013-35.413 128.427 0l221.013 221.013c28.587 29.014 8.107 78.507-32.853 78.507z" />
<glyph unicode="&#xe91f;" glyph-name="star" d="M1004.784 580.208c-7.52 22.384-26.896 38.704-50.224 42.272l-271.504 41.488-121.952 259.792c-10.4 22.144-32.624 36.24-57.040 36.24-24.432 0-46.64-14.096-57.040-36.24l-121.968-259.808-271.504-41.488c-23.328-3.568-42.704-19.872-50.208-42.272s-1.84-47.072 14.656-64l198.272-203.312-46.96-287.632c-3.872-23.808 6.224-47.744 25.92-61.664 19.68-13.92 45.664-15.328 66.832-3.648l242.016 133.84 242.016-133.84c9.552-5.28 20.064-7.872 30.528-7.872 12.736 0 25.472 3.872 36.304 11.52 19.696 13.904 29.776 37.84 25.904 61.664l-46.96 287.632 198.288 203.312c16.464 16.928 22.128 41.6 14.624 64.016z" />
<glyph unicode="&#xe920;" glyph-name="message" d="M97.826 51.541l-0.402-0.452c-13.296-13.658-15.93-34.513-6.386-51.068 9.641-16.721 29.307-24.887 47.957-19.913l247.267 65.937c46.118-16.021 95.624-24.713 147.071-24.713 247.424 0 448 200.576 448 448s-200.576 448-448 448c-247.423 0-447.999-200.576-447.999-448 0-89.724 26.419-173.389 71.901-243.507-1.309-13.564-3.537-29.116-7.072-46.793-9.792-48.964-24.248-82.133-35.459-102.315-5.621-10.116-10.473-17.050-13.595-21.133-1.563-2.044-2.697-3.379-3.282-4.045z" />
<glyph unicode="&#xe921;" glyph-name="folder" d="M512 704h-426.667v85.333c0 23.564 19.103 42.667 42.667 42.667v0h275.84c0.002 0 0.004 0 0.006 0 14.738 0 27.731-7.472 35.396-18.835l0.096-0.152zM896 618.667h-810.667v-512c0-23.564 19.103-42.667 42.667-42.667v0h768c23.564 0 42.667 19.103 42.667 42.667v0 469.333c0 23.564-19.103 42.667-42.667 42.667v0z" />
<glyph unicode="&#xe922;" glyph-name="instagram" d="M512 192c-141.385 0-256 114.615-256 256s114.615 256 256 256c141.385 0 256-114.615 256-256s-114.615-256-256-256zM512 277.333c94.255 0 170.667 76.412 170.667 170.667 0 94.257-76.412 170.667-170.667 170.667-94.257 0-170.667-76.41-170.667-170.667 0-94.255 76.41-170.667 170.667-170.667zM768 746.667c-23.565 0-42.667-19.103-42.667-42.667s19.102-42.667 42.667-42.667c23.565 0 42.667 19.103 42.667 42.667s-19.102 42.667-42.667 42.667zM70.569 777.555c24.544 48.17 63.706 87.333 111.876 111.876 54.761 27.902 126.448 27.902 269.821 27.902h119.467c143.373 0 215.061 0 269.82-27.902 48.171-24.544 87.334-63.706 111.876-111.876 27.904-54.761 27.904-126.448 27.904-269.821v-119.467c0-143.373 0-215.061-27.904-269.82-24.542-48.171-63.706-87.334-111.876-111.876-54.758-27.904-126.447-27.904-269.82-27.904h-119.467c-143.373 0-215.060 0-269.821 27.904-48.17 24.542-87.333 63.706-111.876 111.876-27.902 54.758-27.902 126.447-27.902 269.82v119.467c0 143.373 0 215.060 27.902 269.821zM571.733 832h-119.467c-73.095 0-122.784-0.067-161.191-3.204-37.412-3.057-56.544-8.597-69.89-15.397-32.113-16.363-58.222-42.471-74.584-74.584-6.8-13.346-12.34-32.478-15.397-69.89-3.138-38.407-3.204-88.096-3.204-161.191v-119.467c0-73.097 0.067-122.782 3.204-161.19 3.057-37.414 8.597-56.546 15.397-69.892 16.363-32.111 42.471-58.219 74.584-74.581 13.346-6.801 32.478-12.343 69.89-15.398 38.407-3.136 88.096-3.204 161.191-3.204h119.467c73.097 0 122.782 0.068 161.19 3.204 37.414 3.055 56.546 8.597 69.892 15.398 32.111 16.363 58.219 42.47 74.581 74.581 6.801 13.346 12.343 32.478 15.398 69.892 3.136 38.409 3.204 88.094 3.204 161.19v119.467c0 73.095-0.068 122.784-3.204 161.191-3.055 37.412-8.597 56.544-15.398 69.89-16.363 32.113-42.47 58.222-74.581 74.584-13.346 6.8-32.478 12.34-69.892 15.397-38.409 3.138-88.094 3.204-161.19 3.204z" />
</font>
</defs>
</svg>
